<svg id="visual" viewBox="0 0 3500 100" width="3500" height="100" xmlns="http://www.w3.org/2000/svg" xmlns:xlink="http://www.w3.org/1999/xlink" version="1.1"><rect x="0" y="0" width="3500" height="100" fill="#234f72"></rect><path d="M0 19L152 38L304 50L457 18L609 30L761 50L913 30L1065 7L1217 10L1370 58L1522 54L1674 38L1826 12L1978 21L2130 23L2283 62L2435 45L2587 6L2739 17L2891 54L3043 39L3196 35L3348 53L3500 22L3500 0L3348 0L3196 0L3043 0L2891 0L2739 0L2587 0L2435 0L2283 0L2130 0L1978 0L1826 0L1674 0L1522 0L1370 0L1217 0L1065 0L913 0L761 0L609 0L457 0L304 0L152 0L0 0Z" fill="#c93131" stroke-linecap="square" stroke-linejoin="bevel"></path></svg>