<svg id="visual" viewBox="0 0 3500 200" width="3500" height="200" xmlns="http://www.w3.org/2000/svg" xmlns:xlink="http://www.w3.org/1999/xlink" version="1.1"><rect x="0" y="0" width="3500" height="200" fill="#234f72"></rect><path d="M0 82L250 120L500 62L750 104L1000 35L1250 84L1500 56L1750 74L2000 53L2250 98L2500 109L2750 104L3000 88L3250 19L3500 80L3500 0L3250 0L3000 0L2750 0L2500 0L2250 0L2000 0L1750 0L1500 0L1250 0L1000 0L750 0L500 0L250 0L0 0Z" fill="#FFFFFF" stroke-linecap="square" stroke-linejoin="bevel"></path></svg>