<svg id="visual" viewBox="0 0 3500 100" width="3500" height="100" xmlns="http://www.w3.org/2000/svg" xmlns:xlink="http://www.w3.org/1999/xlink" version="1.1"><rect x="0" y="0" width="3500" height="100" fill="#234f72"></rect><path d="M0 42L152 52L304 37L457 65L609 90L761 45L913 68L1065 77L1217 37L1370 48L1522 54L1674 59L1826 66L1978 57L2130 65L2283 55L2435 41L2587 84L2739 77L2891 81L3043 91L3196 85L3348 42L3500 69L3500 101L3348 101L3196 101L3043 101L2891 101L2739 101L2587 101L2435 101L2283 101L2130 101L1978 101L1826 101L1674 101L1522 101L1370 101L1217 101L1065 101L913 101L761 101L609 101L457 101L304 101L152 101L0 101Z" fill="#c93131" stroke-linecap="square" stroke-linejoin="bevel"></path></svg>